<svg id="calendar2" width="24px" height="24px" viewBox="0 0 24 24" version="1.1" xmlns="http://www.w3.org/2000/svg" xmlns:xlink="http://www.w3.org/1999/xlink">
    <g id="Page-1" stroke="none" stroke-width="1" fill="none" fill-rule="evenodd">
        <g id="Widget_data" transform="translate(-510.000000, -254.000000)">
            <g id="icons8-calendar" transform="translate(510.000000, 254.000000)">
                <rect id="Rectangle" x="0" y="0" width="24" height="24"></rect>
                <path d="M5,0 L5,1 L1,1 L1,23 L23,23 L23,1 L19,1 L19,0 L17,0 L17,1 L7,1 L7,0 L5,0 Z M3,3 L5,3 L5,4 L7,4 L7,3 L17,3 L17,4 L19,4 L19,3 L21,3 L21,5 L3,5 L3,3 Z M3,7 L21,7 L21,21 L3,21 L3,7 Z M9,9 L9,11 L11,11 L11,9 L9,9 Z M13,9 L13,11 L15,11 L15,9 L13,9 Z M17,9 L17,11 L19,11 L19,9 L17,9 Z M5,13 L5,15 L7,15 L7,13 L5,13 Z M9,13 L9,15 L11,15 L11,13 L9,13 Z M13,13 L13,15 L15,15 L15,13 L13,13 Z M17,13 L17,15 L19,15 L19,13 L17,13 Z M5,17 L5,19 L7,19 L7,17 L5,17 Z M9,17 L9,19 L11,19 L11,17 L9,17 Z M13,17 L13,19 L15,19 L15,17 L13,17 Z" id="Shape" fill="#221F1F" fill-rule="nonzero"></path>
            </g>
        </g>
    </g>
</svg>