<svg id="pin2" width="24px" height="24px" viewBox="0 0 24 24" version="1.1" xmlns="http://www.w3.org/2000/svg" xmlns:xlink="http://www.w3.org/1999/xlink">
    <g id="Page-1" stroke="none" stroke-width="1" fill="none" fill-rule="evenodd">
        <g id="Widget_data" transform="translate(-205.000000, -254.000000)">
            <g id="Combined-Shape-2" transform="translate(205.000000, 254.000000)">
                <rect id="Rectangle" x="0" y="0" width="24" height="24"></rect>
                <path d="M12,7.10542736e-15 C16.406438,7.10542736e-15 20,3.593562 20,8 C20,9.268276 19.502477,10.672446 18.822266,12.220703 C18.142055,13.76896 17.251864,15.42275 16.365234,16.951172 C14.6412332,19.9231037 12.920586,22.4257346 12.8263247,22.5624765 L12.822266,22.568359 L12,23.759766 L11.177734,22.568359 C11.177734,22.568359 9.408024,20.008016 7.634766,16.951172 C6.748136,15.42275 5.857945,13.76896 5.177734,12.220703 C4.497523,10.672446 4,9.268276 4,8 C4,3.593562 7.593562,7.10542736e-15 12,7.10542736e-15 Z M12,2 C8.674438,2 6,4.674438 6,8 C6,8.664724 6.377477,9.976835 7.009766,11.416016 C7.642055,12.855196 8.501864,14.458938 9.365234,15.947266 C10.681217,18.215832 11.447181,19.305801 12,20.126953 C12.552819,19.305801 13.318783,18.215832 14.634766,15.947266 C15.498136,14.458938 16.357945,12.855196 16.990234,11.416016 C17.622523,9.976835 18,8.664724 18,8 C18,4.674438 15.325562,2 12,2 Z M12,6 C13.1045695,6 14,6.8954305 14,8 C14,9.1045695 13.1045695,10 12,10 C10.8954305,10 10,9.1045695 10,8 C10,6.8954305 10.8954305,6 12,6 Z" id="Combined-Shape" fill="#221F1F" fill-rule="nonzero"></path>
            </g>
        </g>
    </g>
</svg>