<svg xmlns="http://www.w3.org/2000/svg" viewBox="0 0 20 28" fill="#6B98C0"><path d="M11.5,19.1c-0.8,0.8-1.9,1.3-3.1,1.3c-2.4,0-4.3-1.9-4.3-4.3c0-1.2,0.5-2.2,1.3-3.1 c0.2-0.2,0.2-0.6,0-0.8c-0.2-0.2-0.6-0.2-0.8,0c-1,1-1.6,2.4-1.6,3.9c0,3,2.5,5.5,5.5,5.5c1.5,0,2.8-0.6,3.9-1.6 c0.2-0.2,0.2-0.6,0-0.8C12.1,18.9,11.8,18.9,11.5,19.1z" /><path d="M16.6,18.3H15l-1-2.8c-0.1-0.2-0.3-0.4-0.5-0.4H9.2v-2.6h4c0.3,0,0.6-0.3,0.6-0.6 s-0.3-0.6-0.6-0.6h-4V9.6C9.2,9.3,8.9,9,8.6,9C8.3,9,8,9.3,8,9.6v6.1c0,0.3,0.3,0.6,0.6,0.6H13l1,2.8c0.1,0.2,0.3,0.4,0.5,0.4h2 c0.3,0,0.6-0.3,0.6-0.6C17.2,18.6,17,18.3,16.6,18.3z" /><path d="M8.4,8.8c0.8,0,1.4-0.6,1.4-1.4C9.8,6.6,9.2,6,8.4,6S7,6.6,7,7.4C7,8.2,7.6,8.8,8.4,8.8z" /></svg>